<svg data-v-423bf9ae="" xmlns="http://www.w3.org/2000/svg" viewBox="0 0 441 90" class="iconLeft"><!----><!----><!----><g data-v-423bf9ae="" id="50d158bf-a34a-423c-a74c-657c36df2900" fill="black" transform="matrix(4.8979591836734695,0,0,4.8979591836734695,120.61493058472263,12.25714147455838)"><path d="M9.72 1.05L7.08 1.05L7.08 7.73C7.08 9.66 6.50 10.22 5.21 10.22C3.92 10.22 3.33 9.66 3.33 7.73L3.33 1.05L0.70 1.05L0.70 8.50C0.70 11.35 2.27 12.81 5.21 12.81C8.15 12.81 9.72 11.35 9.72 8.50ZM11.26 12.60L13.73 12.60L13.73 8.54C13.73 7.83 14.46 7.14 15.20 7.14C16.00 7.14 16.49 7.83 16.49 8.54L16.49 12.60L18.97 12.60L18.97 7.87C18.97 5.87 17.14 5.21 15.82 5.21C15.04 5.21 14.32 5.61 13.76 6.17L13.73 6.17L13.73 5.42L11.26 5.42ZM21.78 0.98C20.97 0.98 20.31 1.64 20.31 2.45C20.31 3.26 20.97 3.92 21.78 3.92C22.60 3.92 23.25 3.26 23.25 2.45C23.25 1.64 22.60 0.98 21.78 0.98ZM20.51 5.42L22.99 5.42L22.99 12.60L20.51 12.60ZM30.44 10.22C27.79 10.22 26.63 8.37 26.63 6.82C26.63 5.28 27.79 3.43 30.44 3.43C31.78 3.43 32.70 4.14 32.70 4.14L33.82 1.90C33.82 1.90 32.54 0.84 30.03 0.84C26.75 0.84 23.77 3.53 23.77 6.85C23.77 10.15 26.77 12.81 30.03 12.81C32.54 12.81 33.82 11.75 33.82 11.75L32.70 9.51C32.70 9.51 31.78 10.22 30.44 10.22ZM34.83 12.60L37.31 12.60L37.31 0.56L34.83 0.56ZM38.47 9.02C38.47 11.23 40.21 12.81 42.80 12.81C45.28 12.81 47.08 11.23 47.08 9.02C47.08 6.78 45.18 5.21 42.80 5.21C40.38 5.21 38.47 6.78 38.47 9.02ZM41.10 9.02C41.10 8.02 41.85 7.32 42.78 7.32C43.71 7.32 44.45 8.02 44.45 9.02C44.45 10.00 43.75 10.70 42.78 10.70C41.78 10.70 41.10 10.00 41.10 9.02ZM50.58 5.42L48.10 5.42L48.10 9.44C48.10 11.84 49.31 12.81 52.00 12.81C54.68 12.81 55.89 11.84 55.89 9.44L55.89 5.42L53.41 5.42L53.41 8.83C53.41 10.25 53.03 10.79 52.00 10.79C50.96 10.79 50.58 10.25 50.58 8.83ZM56.91 9.02C56.91 11.12 58.38 12.81 60.48 12.81C61.46 12.81 62.30 12.38 62.83 11.79L62.86 11.79L62.86 12.60L65.31 12.60L65.31 0.56L62.83 0.56L62.83 6.10C62.24 5.53 61.45 5.21 60.48 5.21C58.38 5.21 56.91 6.92 56.91 9.02ZM59.54 9.02C59.54 8.02 60.28 7.32 61.22 7.32C62.15 7.32 62.89 8.02 62.89 9.02C62.89 10.00 62.19 10.70 61.22 10.70C60.21 10.70 59.54 10.00 59.54 9.02Z"></path></g><!----><g data-v-423bf9ae="" id="c57c1fa7-a6fd-47a8-8534-e1001fb9f13e" transform="matrix(5.203973934427568,0,0,5.203973934427568,0.9491844028469316,1.0105496013965336)" stroke="none" fill="black"><g data-name="Layer 2"><path d="M20 6.49v5.83a.73.73 0 1 1-1.46 0V6.6L10 11.48a.37.37 0 0 1-.38 0L.19 6.09a.38.38 0 0 1 0-.65L9.62.05a.37.37 0 0 1 .38 0l9.37 5.36A1.24 1.24 0 0 1 20 6.49zM16.22 9.6l-6.12 3.5a.55.55 0 0 1-.58 0L3.39 9.6a.58.58 0 0 0-.86.51v2.61a.58.58 0 0 0 .28.49l6.7 4a.59.59 0 0 0 .6 0l6.7-4a.58.58 0 0 0 .28-.49v-2.61a.58.58 0 0 0-.87-.51z" data-name="Layer 1"></path></g></g><!----></svg>